<svg xmlns="http://www.w3.org/2000/svg" enable-background="new 0 0 24 24" viewBox="0 0 24 24" id="graphql">
  <circle cx="12.01" cy="2.53" r="1.28" fill="#DF34A6"></circle>
  <circle cx="20.47" cy="7" r="1.28" fill="#DF34A6"></circle>
  <circle cx="20.25" cy="17" r="1.28" fill="#DF34A6"></circle>
  <circle cx="11.788" cy="21.75" r="1.28" fill="#DF34A6"></circle>
  <circle cx="3.5" cy="17" r="1.28" fill="#DF34A6"></circle>
  <circle cx="3.75" cy="6.557" r="1.28" fill="#DF34A6"></circle>
  <path d="M12.009 4.5c-1.24 0-2.25-1.009-2.25-2.25S10.769 0 12.009 0s2.25 1.009 2.25 2.25S13.249 4.5 12.009 4.5zM12.009 1.5c-.413 0-.75.336-.75.75S11.596 3 12.009 3s.75-.336.75-.75S12.422 1.5 12.009 1.5zM12.009 24c-1.24 0-2.25-1.009-2.25-2.25s1.01-2.25 2.25-2.25 2.25 1.009 2.25 2.25S13.249 24 12.009 24zM12.009 21c-.413 0-.75.336-.75.75s.337.75.75.75.75-.336.75-.75S12.422 21 12.009 21zM20.25 9.25C19.01 9.25 18 8.241 18 7s1.01-2.25 2.25-2.25S22.5 5.759 22.5 7 21.49 9.25 20.25 9.25zM20.25 6.25c-.413 0-.75.336-.75.75s.337.75.75.75S21 7.414 21 7 20.663 6.25 20.25 6.25zM3.75 9.25C2.51 9.25 1.5 8.241 1.5 7s1.01-2.25 2.25-2.25S6 5.759 6 7 4.99 9.25 3.75 9.25zM3.75 6.25C3.337 6.25 3 6.586 3 7s.337.75.75.75S4.5 7.414 4.5 7 4.163 6.25 3.75 6.25zM20.25 19.25C19.01 19.25 18 18.241 18 17s1.01-2.25 2.25-2.25S22.5 15.759 22.5 17 21.49 19.25 20.25 19.25zM20.25 16.25c-.413 0-.75.336-.75.75s.337.75.75.75S21 17.414 21 17 20.663 16.25 20.25 16.25zM3.75 19.25c-1.24 0-2.25-1.009-2.25-2.25s1.01-2.25 2.25-2.25S6 15.759 6 17 4.99 19.25 3.75 19.25zM3.75 16.25C3.337 16.25 3 16.586 3 17s.337.75.75.75S4.5 17.414 4.5 17 4.163 16.25 3.75 16.25z"></path>
  <path d="M19.521,16.45c-0.264,0-0.519-0.139-0.656-0.385l-6.779-12.15c-0.201-0.361-0.072-0.818,0.29-1.02c0.362-0.204,0.818-0.072,1.021,0.29l6.779,12.15c0.201,0.361,0.072,0.818-0.29,1.02C19.77,16.42,19.644,16.45,19.521,16.45z"></path>
  <path d="M18.75,17.75H5.25c-0.414,0-0.75-0.336-0.75-0.75s0.336-0.75,0.75-0.75h13.5c0.414,0,0.75,0.336,0.75,0.75S19.164,17.75,18.75,17.75z"></path>
  <path d="M4.489 16.45c-.123 0-.249-.03-.364-.095-.362-.202-.491-.659-.29-1.02l6.779-12.15c.202-.361.659-.493 1.021-.29.362.202.491.659.29 1.02l-6.779 12.15C5.008 16.312 4.753 16.45 4.489 16.45zM18.969 6.99c-.125 0-.253-.031-.37-.098l-5.68-3.23c-.359-.205-.485-.663-.281-1.022.206-.359.662-.487 1.023-.281l5.68 3.23c.359.205.485.663.281 1.022C19.483 6.854 19.229 6.99 18.969 6.99zM10.73 21.74H10.72c-.13 0-.258-.034-.371-.098l-5.652-3.215c-.243-.125-.411-.376-.411-.667 0-.414.331-.75.745-.75.13 0 .268.034.381.098l5.651 3.214c.244.125.413.377.413.668C11.476 21.404 11.145 21.74 10.73 21.74z"></path>
  <path d="M5.04 6.99c-.414 0-.755-.336-.755-.75 0-.309.185-.574.449-.689l5.614-3.193c.474-.271 1.127.108 1.127.652 0 .311-.187.577-.453.691L5.411 6.892C5.298 6.957 5.17 6.99 5.04 6.99zM3.75 16.25C3.336 16.25 3 15.914 3 15.5v-7c0-.414.336-.75.75-.75S4.5 8.086 4.5 8.5v7C4.5 15.914 4.164 16.25 3.75 16.25zM13.291 21.74c-.261 0-.515-.136-.653-.379-.204-.36-.078-.818.281-1.022l5.68-3.23c.361-.206.817-.079 1.023.281.204.36.078.818-.281 1.022l-5.68 3.23C13.544 21.708 13.416 21.74 13.291 21.74zM20.25 16.25c-.414 0-.75-.336-.75-.75v-7c0-.414.336-.75.75-.75S21 8.086 21 8.5v7C21 15.914 20.664 16.25 20.25 16.25z"></path>
</svg>
